<?xml version="1.0" encoding="utf-8"?>
<!DOCTYPE svg PUBLIC "-//W3C//DTD SVG 1.0//EN" "http://www.w3.org/TR/2001/REC-SVG-20010904/DTD/svg10.dtd">
<svg version="1.0" xmlns="http://www.w3.org/2000/svg" width="409px" height="432px" viewBox="0 0 409 432" preserveAspectRatio="xMidYMid meet">
 <g fill="#0b181f">
  <path d="M187.50 413.95 c-20.35 -1.90 -40.15 -6.70 -57.50 -13.80 -5.65 -2.35 -20.05 -9.50 -25.95 -13 -22 -12.90 -44.20 -32.70 -59.95 -53.45 -3.65 -4.90 -11.55 -16.90 -14.70 -22.45 -17 -29.90 -25.40 -66.50 -23.45 -102 1.40 -25.05 6.15 -45.40 15.40 -66.25 10.25 -23.05 22.30 -40.65 39.90 -58.20 13.65 -13.65 26.60 -23.45 43.10 -32.65 20.80 -11.60 47.80 -20.30 74.15 -23.90 7.90 -1.10 32.75 -1.55 41.50 -0.80 15.45 1.35 26.60 3.50 43 8.30 21.10 6.20 38.45 14.65 57.70 28.15 17.75 12.45 38.25 33.85 49.85 52.10 3 4.65 9.95 17.35 12.25 22.30 7.80 16.85 14.30 39.50 16.45 57.70 1.15 9.25 1.55 29.60 0.80 38.60 -2.15 25.70 -8 47.35 -18.60 68.50 -16.45 32.85 -38.30 57.70 -68.20 77.65 -26.40 17.55 -54.15 27.90 -87.25 32.50 -6.80 0.95 -31.20 1.40 -38.50 0.70z m35.20 -17.70 c13.90 -1.60 24.65 -4 38.05 -8.50 44.35 -14.80 81.40 -46.40 103 -87.85 10.20 -19.70 15.70 -37.20 18.55 -59.65 1.25 -9.70 1.30 -33.25 0.05 -42.35 -5.50 -40.55 -22.25 -74.10 -51.20 -102.45 -20.40 -20 -42.45 -33.50 -68.15 -41.85 -13.30 -4.30 -26.90 -7.30 -39.25 -8.70 -7.85 -0.85 -32.20 -0.85 -39.50 0 -46.35 5.45 -82.55 22.70 -112.75 53.90 -16.90 17.45 -30.50 39.20 -38.80 62.05 -1.95 5.40 -5.25 17.75 -6.65 24.90 -4 20.35 -3.90 46.15 0.20 67.15 4.10 20.95 11.95 40.80 23.10 58.20 21.20 33.15 51 58.25 86.55 72.85 27.10 11.15 58.50 15.60 86.80 12.30z"/>
  <path d="M198.75 385.70 c-0.80 -0.10 -3.90 -0.30 -6.85 -0.50 l-5.40 -0.30 0 -42.20 0 -42.25 1.70 -1.65 c4.10 -4.10 2.95 -11.35 -2.20 -14.25 -1.75 -0.95 -2.60 -1.15 -5.30 -0.95 -3.50 0.20 -5.20 1.15 -7 3.80 -2.35 3.45 -1.85 8.80 1.10 11.65 l1.70 1.65 0 41.15 c0 36 -0.10 41.20 -0.75 41.45 -0.40 0.15 -3.70 -0.35 -7.35 -1.10 l-6.65 -1.45 -0.15 -40 -0.10 -39.95 1.70 -1.80 c2.30 -2.40 2.80 -3.55 2.80 -6.35 0 -7.10 -6.70 -11.20 -13.35 -8.20 -5 2.30 -6.35 10.80 -2.35 14.80 0.90 0.90 0.95 2.35 0.95 39.35 l0 38.45 -1.75 -0.30 c-2.45 -0.45 -10.20 -3.40 -15.80 -6 l-4.70 -2.20 0 -26.15 0 -26.20 2.90 -1.35 c3.70 -1.80 7.20 -5.20 9 -8.80 1.20 -2.55 1.35 -3.30 1.35 -8.30 0 -4.80 -0.15 -5.80 -1.25 -8 -1.60 -3.30 -5.55 -7.15 -9.25 -9 -2.70 -1.35 -3.45 -1.50 -7.75 -1.50 -4.40 0 -5.05 0.15 -8.10 1.65 -14.20 7 -14.30 26.95 -0.15 33.85 l2.75 1.35 0.10 23.10 c0.10 12.65 0.10 23.15 0 23.25 -0.25 0.45 -4.85 -2.05 -9.35 -5.05 -7.65 -5.15 -18.70 -14.30 -25.80 -21.35 -28.70 -28.70 -44.50 -61.40 -49 -101.55 -0.90 -7.90 -0.75 -25.95 0.25 -34.25 2.05 -16.70 6.35 -32.95 12.15 -45.85 l1.30 -2.90 47.05 0 c41.85 0 47.20 -0.10 48.20 -0.80 3.65 -2.55 3.35 -9.30 -0.45 -10.65 -1.15 -0.40 -14.45 -0.55 -44.75 -0.55 -23.75 0 -43.20 -0.15 -43.20 -0.30 0 -0.50 3.25 -5.80 7.35 -12 4.95 -7.50 10.40 -13.95 19.40 -22.95 20.10 -20.15 42.70 -33.45 70.60 -41.50 7.75 -2.25 22.95 -5.60 23.40 -5.20 0.10 0.15 0.25 17.65 0.25 38.90 l0.05 38.60 -1.50 1.75 c-6.10 6.95 0.45 17.55 9.25 14.95 2.70 -0.80 5.30 -3.10 6.15 -5.40 1.25 -3.35 0.30 -7.80 -2.15 -9.70 l-1.30 -1.05 0 -39.50 0 -39.50 1.15 -0.30 c0.65 -0.15 4.05 -0.45 7.50 -0.60 l6.35 -0.35 0 39.75 0 39.70 -1.55 1.50 c-5.75 5.35 -2.50 14.95 5.30 15.60 3.40 0.30 4.80 -0.05 6.75 -1.70 4.30 -3.65 4.65 -10.05 0.70 -13.75 l-1.20 -1.10 0 -39.70 c0 -34.75 0.10 -39.70 0.75 -39.95 0.75 -0.30 12.15 0.65 13.90 1.10 0.80 0.25 0.85 2.55 0.85 39.05 l0 38.75 -1.95 1.95 c-4.40 4.25 -3.75 10.85 1.45 14.25 4.20 2.80 10.25 1.30 12.85 -3.20 1.10 -1.80 1.25 -2.60 1.05 -5.30 -0.15 -2.55 -0.50 -3.55 -1.65 -5.10 l-1.45 -1.90 0.10 -38.30 0.15 -38.25 1.60 0.15 c2.05 0.20 11.50 2.60 12 3.05 0.20 0.20 0.35 16.75 0.35 36.75 l0 36.40 -1.55 1.30 c-4.35 3.65 -3.75 11.25 1.20 14.50 2.40 1.60 6.65 1.80 9.20 0.45 2.90 -1.55 4.35 -4.05 4.55 -7.80 0.15 -3 0.05 -3.50 -1.40 -5.65 l-1.55 -2.30 0.05 -34.90 c0 -19.20 0.20 -35.10 0.40 -35.30 0.95 -0.90 20.80 8.25 30.10 13.90 12.15 7.30 22.20 15.25 32.75 25.90 14.15 14.20 22.35 25.55 30.95 42.75 8.05 16.05 13.25 33.70 15.55 52.55 1 8.10 1 26.95 0 36.15 -1.55 14.75 -5.90 32.30 -11.05 44.75 -11.75 28.40 -33.45 55.30 -58.90 73.10 -15.80 11 -34.65 19.95 -52.55 25 -5.05 1.45 -11.45 3 -11.55 2.85 -0.05 -0.05 -0.20 -18.60 -0.30 -41.25 -0.20 -34.95 -0.15 -41.20 0.45 -41.70 1.40 -1.15 2.65 -4.35 2.65 -6.75 -0.05 -5 -4.20 -9.30 -9.10 -9.30 -2.75 0 -5.55 1.10 -6.80 2.60 -1.25 1.55 -2.60 4.80 -2.60 6.40 0 2.45 1.40 5.50 3.20 6.90 l1.55 1.20 0.25 41.60 c0.15 27.40 0.10 41.65 -0.25 41.95 -0.65 0.55 -13.50 1.70 -14.50 1.30 -0.65 -0.25 -0.75 -5.05 -0.75 -42.50 0 -30.15 0.15 -42.35 0.55 -42.60 0.30 -0.15 1.20 -1.35 2 -2.60 1.80 -2.85 1.95 -6.25 0.40 -9.45 -2.55 -5.25 -10.80 -6.45 -14.75 -2.05 -3.65 3.95 -3.50 9.20 0.35 13.20 l1.45 1.50 -0.10 42.45 c-0.10 27.80 -0.30 42.45 -0.65 42.50 -0.25 0.05 -1.15 0 -2 -0.05z m96.10 -39.45 c11.25 -3.35 16.85 -16 11.75 -26.40 -5.70 -11.60 -21.40 -14.10 -30.60 -4.90 -1.40 1.40 -2.75 2.55 -3 2.55 -0.25 0 -2.85 -1.05 -5.75 -2.30 l-5.25 -2.30 0 -6.50 c0 -6.25 0.05 -6.50 1.35 -8.25 1.95 -2.50 2.25 -7.25 0.65 -10.05 -4.60 -8.15 -17 -5 -17 4.40 0 2.40 1.85 6.10 3.50 7 0.90 0.50 1 1.20 1.10 10.40 l0.15 9.85 9.30 4.70 9.35 4.75 0.60 2.65 c1.45 6.65 6.65 12.55 12.65 14.45 2.85 0.85 8.15 0.85 11.20 -0.05z m35.05 -50 c0.45 -0.20 0.60 -1.70 0.50 -6.10 l-0.15 -5.90 -27.75 -0.15 c-27 -0.10 -27.80 -0.05 -29.40 0.90 -3.70 2.30 -3.90 9.25 -0.30 11.15 0.85 0.45 7.85 0.55 28.80 0.45 15.20 -0.05 27.95 -0.25 28.30 -0.35z m-215.50 -40.50 l-0.15 -8.30 -21.25 -0.10 -21.25 -0.10 -0.15 -9.60 -0.10 -9.65 11.95 0 11.95 0 0.20 -1.50 c0.15 -0.85 0.15 -4.40 0.05 -7.90 l-0.15 -6.35 -12.10 -0.25 -12.15 -0.25 -0.05 -7.50 c-0.05 -4.10 0.05 -9.35 0.20 -11.60 l0.25 -4.15 21.40 0 21.45 0 0 -8.50 0 -8.50 -29.60 0.10 -29.65 0.15 -0.15 45.50 c-0.05 25.05 0 45.80 0.15 46.15 0.15 0.45 6.60 0.60 29.75 0.60 l29.50 0 -0.10 -8.25z m65.10 -9.50 l0 -17.75 10.65 -0.10 10.60 -0.15 0.15 -8.15 0.10 -8.10 -18.85 0.10 -18.90 0.15 -0.15 25.90 -0.10 25.85 8.25 0 8.25 0 0 -17.75z m77 -28.50 l0 -46.25 -8 0 c-6.05 0 -8 0.15 -8 0.65 0 0.30 -0.15 20.75 -0.30 45.40 -0.20 24.65 -0.20 45.20 -0.05 45.65 0.30 0.70 1.45 0.80 8.35 0.80 l8 0 0 -46.25z m38.75 39.40 c5.70 -8.65 16.65 -24.70 17.45 -25.50 0.45 -0.50 2.95 2.90 11.55 15.85 l11 16.50 9.35 0 c5.70 0 9.40 -0.20 9.40 -0.50 0 -0.45 -3.20 -5.25 -22.65 -34 l-8.30 -12.20 1.20 -2.05 c1.55 -2.55 9.75 -14.50 17.70 -25.75 10.20 -14.40 12.05 -17.20 11.60 -17.65 -0.25 -0.25 -4.65 -0.35 -9.80 -0.25 -10.75 0.20 -9.20 -0.60 -13.90 6.95 -4.80 7.85 -16.20 24.20 -16.80 24.20 -0.60 0 -7.10 -9.10 -17.35 -24.10 l-4.85 -7.15 -9.40 0 c-5.90 0 -9.45 0.20 -9.45 0.50 0 0.50 10.40 16.10 17 25.50 10.90 15.60 13.50 19.40 13.50 20 0 0.30 -2.95 4.70 -6.55 9.80 -6.85 9.75 -24.45 36 -24.45 36.45 0 0.15 4.35 0.25 9.65 0.25 l9.60 0 4.50 -6.85z m-151.50 -30.25 c0.15 -0.65 0.20 -4.20 0.10 -7.90 l-0.10 -6.75 -8.75 0 -8.75 0 -0.05 5 c-0.05 2.75 0.05 6.30 0.20 7.90 l0.25 2.85 8.40 0 c8.35 0 8.45 0 8.70 -1.10z m35.75 -30.65 l0 -7.75 19.50 0 19.50 0 0 -8.50 0 -8.50 -27.60 0.10 -27.65 0.15 -0.15 16.15 -0.10 16.10 8.25 0 8.25 0 0 -7.75z m120.55 -41.45 c5.70 -1.30 10.30 -5.25 13.10 -11.20 2.05 -4.30 2.15 -9.25 0.40 -13.75 -3.20 -8.15 -12.50 -13.45 -20.90 -11.90 -9.05 1.65 -14.30 7.35 -15.75 17.10 -0.90 6.05 1.95 13 6.85 16.60 4.65 3.40 10.55 4.55 16.30 3.15z m-138.90 -3.50 c3.55 -1.45 5.75 -5.80 5.15 -10.05 -0.30 -1.80 -0.80 -2.70 -2.35 -4.15 l-1.95 -1.85 0 -9.30 c0 -8.50 -0.10 -9.40 -1 -10.55 -0.55 -0.70 -4.65 -3.15 -9.10 -5.40 -4.50 -2.30 -8.30 -4.40 -8.50 -4.70 -0.20 -0.30 -0.40 -0.95 -0.40 -1.40 0 -2 -2.20 -6.55 -4.30 -8.85 -1.55 -1.70 -3.50 -3.15 -6.10 -4.40 -3.50 -1.75 -4.10 -1.90 -7.80 -1.85 -8.90 0.15 -15.50 4.90 -18.30 13.25 -1.40 4.10 -1.10 9.25 0.70 13.30 1.65 3.55 5.80 7.80 9.25 9.50 2.50 1.25 3.35 1.40 8.05 1.40 5 0 5.40 -0.05 8.35 -1.70 1.75 -0.90 4.15 -2.80 5.40 -4.10 1.25 -1.35 2.55 -2.45 2.90 -2.45 0.35 0 2.75 1.10 5.35 2.40 l4.75 2.35 0.15 6.45 c0.10 5.85 0.05 6.55 -0.85 7.50 -2.05 2.20 -2.70 6.80 -1.35 9.95 0.75 1.80 3.05 4.25 4.55 4.90 1.60 0.65 5.65 0.50 7.40 -0.25z"/>
  <path d="M286.70 335.05 c-5.05 -2.30 -6.15 -8.50 -2.20 -12.30 2.05 -1.95 6.40 -2.30 8.90 -0.80 2.65 1.70 3.70 3.85 3.45 7.15 -0.20 3.25 -1.40 5 -4.20 6.20 -2.15 0.95 -3.50 0.85 -5.95 -0.25z"/>
  <path d="M292.15 143.25 c-3.50 -1.50 -5.10 -6.30 -3.35 -10.05 2.60 -5.50 11.75 -4.75 14 1.15 2.40 6.20 -4.20 11.70 -10.65 8.90z"/>
  <path d="M121.05 114.15 c-3.70 -1.85 -5.25 -6.75 -3.20 -10.25 1.15 -1.95 4.30 -3.90 6.35 -3.90 2.45 0 5.50 1.80 6.70 3.95 3.65 6.50 -3.10 13.50 -9.85 10.20z"/>
  <path d="M120.50 304.55 c-2.10 -1.10 -4 -4.15 -4 -6.50 0 -2.40 1.90 -5.50 4.10 -6.60 5.20 -2.65 10.90 0.90 10.90 6.85 0 2.10 -0.25 2.95 -1.35 4.25 -2.45 2.90 -6.40 3.75 -9.65 2z"/>
 </g>
</svg>